<svg xmlns="http://www.w3.org/2000/svg" xmlns:xlink="http://www.w3.org/1999/xlink" viewBox="0 0 263.62 70.87"><defs><style>.a{fill:none;}.b{clip-path:url(#a);}.c{fill:#503729;}</style><clipPath id="a"><rect class="a" width="263.62" height="70.87"/></clipPath></defs><title>Ebene 1 (2)</title><g class="b"><path class="c" d="M167.74,37.48l1.91-.12a3.48,3.48,0,0,1,.79.09,23.12,23.12,0,0,0-.47-2.7,2,2,0,0,0-1.59-1.1,1.16,1.16,0,0,0-.32,0,2.11,2.11,0,0,0-1.51,1.45c0,.43-.23.95-.23,1.42a1,1,0,0,0,.32.75A3.38,3.38,0,0,0,167.74,37.48Z"/><path class="c" d="M147.79,32.66h0a2.69,2.69,0,0,0-2.09-1.1l-.26,0c.55.14,1,.38,1.54.49S147.41,32.66,147.79,32.66Z"/><path class="c" d="M144.51,37.48l1.92-.12a3.46,3.46,0,0,1,.78.09,23.08,23.08,0,0,0-.46-2.7,2,2,0,0,0-1.6-1.1,1.16,1.16,0,0,0-.32,0,2.11,2.11,0,0,0-1.51,1.45c0,.43-.23.95-.23,1.42a1,1,0,0,0,.32.75A3.38,3.38,0,0,0,144.51,37.48Z"/><path class="c" d="M143,44.82c-.06,0-.11,0-.11.08V45c0,.09.14.12.26.12s.11,0,.14,0V45C143.32,44.87,143.15,44.82,143,44.82Z"/><path class="c" d="M142.13,44.12a.09.09,0,0,0-.08,0,.11.11,0,0,0,0,.09c0,.11.14.29.26.29v-.21C142.28,44.21,142.22,44.12,142.13,44.12Z"/><path class="c" d="M142.34,32.75c-.21,0-.38.14-.38.23A.06.06,0,0,0,142,33l.08,0,.09,0c.12-.06.26-.15.26-.23a.06.06,0,0,0-.06-.06Z"/><path class="c" d="M131.72,39.86c-.05,0-.08,0-.08.11s0,.09.06.09l.05,0a0,0,0,0,0,0,0s0,0,0-.06S131.78,39.86,131.72,39.86Z"/><path class="c" d="M130.65,37.16l0,.06h0c.06,0,.14-.12.2-.15l-.08-.12S130.65,37,130.65,37.16Z"/><path class="c" d="M136.74,25.73a.51.51,0,0,1-.35.09h-.29a.45.45,0,0,0-.4.17c0,.14,0,.43.17.49v0c0-.69.87-.34,1.19-.55a.48.48,0,0,1,.38.52.06.06,0,0,0,.05.06.23.23,0,0,0,.12-.06.18.18,0,0,0,.06-.14.36.36,0,0,0,0-.15C137.49,25.73,137,26,136.74,25.73Z"/><path class="c" d="M136,43.86V43.4a1.36,1.36,0,0,0-.23-.9V45c0,.09.09.15.21.15h0a2.32,2.32,0,0,1,0-.44,1.8,1.8,0,0,1,0-.41A2.08,2.08,0,0,1,136,43.86Z"/><path class="c" d="M137.7,45.14s0,.11.08.11l.06,0a0,0,0,0,0,0,0h0s.06-.06.06-.11a.18.18,0,0,0-.09-.18C137.75,45,137.7,45.05,137.7,45.14Z"/><path class="c" d="M160.29,33.24h0c-.06,0-.06.09-.06.15s.09.37.23.37.09,0,.09-.14S160.43,33.24,160.29,33.24Z"/><path class="c" d="M145.47,45.43h0a.13.13,0,0,0-.15.14v.06s.09,0,.12.06l.12,0a.16.16,0,0,0,.17-.15v0C145.67,45.43,145.58,45.45,145.47,45.43Z"/><path class="c" d="M157.82,31.41c-.2,0-.46.27-.43.32a.06.06,0,0,0,.06.06c.08,0,.2-.09.31-.09s.27-.05.27-.14v0A.23.23,0,0,0,157.82,31.41Z"/><path class="c" d="M158.34,31.47c-.05.06-.11.12-.11.18a.26.26,0,0,0,.09.14.34.34,0,0,1,.17,0c.2,0,.35.15.64.15v-.12a1.17,1.17,0,0,0-.7-.32Z"/><path class="c" d="M172.64,39.28a.88.88,0,0,0,.06-.32v0c-.17.09,0,.17-.26.26s-.52.14-.52.23v0c0,.06.08.09.2.09A.62.62,0,0,0,172.64,39.28Z"/><path class="c" d="M171,32.66h0a2.69,2.69,0,0,0-2.09-1.1l-.26,0c.55.14,1,.38,1.53.49S170.64,32.66,171,32.66Z"/><path class="c" d="M130.42,33.21s.09,0,.09-.08l0-.06c0-.06-.26-.09-.26-.09v0c0,.06.08.09.14.17Z"/><path class="c" d="M154.46,45.05c-.15,0-.23.26-.41.32a1.43,1.43,0,0,0,.29.08h0c.12,0,.29-.08.29-.2a.11.11,0,0,0,0-.09A.22.22,0,0,0,154.46,45.05Z"/><path class="c" d="M152.49,34.75a3.89,3.89,0,0,0-.21,1c.23-.06.29-.35.29-.61S152.51,34.69,152.49,34.75Z"/><path class="c" d="M146.11,45.6a.22.22,0,0,0,.2.09,1.77,1.77,0,0,0,.64-.18,2,2,0,0,0,.49-.4C146.75,45.57,146.11,45.48,146.11,45.6Z"/><path class="c" d="M154.26,31.85a.06.06,0,0,0-.06-.06l-.12,0c-.14,0-.32-.09-.41-.09a.11.11,0,0,0-.11.12v.06a1,1,0,0,0,.38.08.85.85,0,0,0,.26,0S154.26,31.88,154.26,31.85Z"/><path class="c" d="M149.41,39.28a.88.88,0,0,0,.06-.32v0c-.17.09,0,.17-.26.26s-.52.14-.52.23v0c0,.06.09.09.2.09A.61.61,0,0,0,149.41,39.28Z"/><path class="c" d="M122,44.27l.32-.09a.43.43,0,0,0-.18-.06C122.07,44.12,122,44.15,122,44.27Z"/><path class="c" d="M121.86,42c-.06,0-.09,0-.11.06s.08.09.14.09.09,0,.09,0V42C122,42,121.92,42,121.86,42Z"/><path class="c" d="M129.17,28.89a.1.1,0,0,0,0-.06h0a.1.1,0,0,0-.11.09l.08.06A.14.14,0,0,0,129.17,28.89Z"/><path class="c" d="M124.33,33.68a.42.42,0,0,0,.2,0,3.54,3.54,0,0,0,1.36.26,2.58,2.58,0,0,0,2.88-2.47,3.89,3.89,0,0,0-.09-.78,3.07,3.07,0,0,0-2.79-2.7c-.32,0-.49.26-.66.26a.44.44,0,0,1-.41-.29c-.32.38-.9-.17-.9.87l.06,1a.89.89,0,0,1,0,.29,3.11,3.11,0,0,1,.06.49c0,.76-.35,1.39-.35,2.18C123.66,33.18,123.69,33.68,124.33,33.68Z"/><path class="c" d="M121.83,28.69c.06,0,.09,0,.09-.06v0s0-.09-.06-.09-.14,0-.14.09v0S121.77,28.69,121.83,28.69Z"/><path class="c" d="M131.29,30.6a.1.1,0,0,0,.06,0s0-.06,0-.08,0-.15-.12-.15-.09.09-.09.15,0,.08.06.08Z"/><path class="c" d="M123.37,33.15l-.17,0-.06,0s0,.08.09.08A.22.22,0,0,0,123.37,33.15Z"/><path class="c" d="M121.83,29.27s0,.11.09.11a.13.13,0,0,0,.15-.14.06.06,0,0,0-.06-.06C121.92,29.18,121.83,29.21,121.83,29.27Z"/><path class="c" d="M122.12,26.57a.46.46,0,0,0,.18-.09v0c0-.05-.21-.05-.29-.05S122.07,26.57,122.12,26.57Z"/><path class="c" d="M122,41.28c-.09,0-.09.06-.09.08v0s.2,0,.2,0,0,0,0-.06Z"/><path class="c" d="M123.2,37c-.06,0-.09,0-.09.12h.06c.09,0,.11,0,.14,0S123.26,37,123.2,37Z"/><path class="c" d="M123.69,43.25c-.09,0,0,.35-.15.49h.15c0-.05.17-.17.17-.29s0-.08-.08-.14S123.72,43.25,123.69,43.25Z"/><path class="c" d="M123.43,29.18c-.06,0-.09.06-.09.12s.06.08.09.08a.08.08,0,0,0,.09-.08A.13.13,0,0,0,123.43,29.18Z"/><path class="c" d="M123.37,41.28s0,0,0,.06,0,.2.09.2h0s.06-.06.06-.09-.09-.14-.12-.17Z"/><path class="c" d="M126.15,36.26a4.22,4.22,0,0,0-1.59.29.56.56,0,0,0-.23-.06.66.66,0,0,0-.55.26c.08.61,0,2,.23,3.77v.15c0,.32-.06.75-.06,1.16a1.67,1.67,0,0,0,0,.4l.06.24c.23.14,1,0,1.22.23,0-.06.14-.09.26-.09a2.62,2.62,0,0,1,1,.29c.12,0,.18-.26.47-.35,1.42-.29,2.23-1.85,2.23-3.39V39C129.17,37.59,128.39,36.26,126.15,36.26Z"/><path class="c" d="M129.52,41.71s-.12,0-.12.06a.23.23,0,0,0,.06.15h0c.06,0,.09-.06.09-.15s0-.06,0-.06Z"/><path class="c" d="M122.88,44.24c0,.08,0,.17.14.17h.09l-.17-.32S122.88,44.18,122.88,44.24Z"/><path class="c" d="M123.23,39.86c.08-.09.2-.18.26-.26s-.06-.06-.12-.06a.44.44,0,0,0-.14.29Z"/><path class="c" d="M123.26,43.92s-.06.08-.06.11a.14.14,0,0,0,.11.15c.06,0,.09,0,.12-.09v0A.18.18,0,0,0,123.26,43.92Z"/><path class="c" d="M123,43.37l0,0s0,0,0,0l.09.09a.1.1,0,0,0,.06,0v0A.09.09,0,0,0,123,43.37Z"/><path class="c" d="M130,33.39v0s.06.17.12.17a.21.21,0,0,0,.09-.15S130,33.39,130,33.39Z"/><path class="c" d="M218.42,45.05s0-.06,0-.09l0-.06s0,0,0,0-.18.26-.18.49c0,0,.06.46.12.46l.12-.08s0,.05,0,.11v0c0,.06.05.06.05.06s.06-.06.06-.18a2.47,2.47,0,0,0-.11-.72A.1.1,0,0,1,218.42,45.05Zm-.06.4c-.06,0-.12-.05-.12-.08s0-.12.12-.12.06,0,.06.09A.11.11,0,0,1,218.36,45.45Z"/><path class="c" d="M202.53,32.75c-.21,0-.38.14-.38.23a.06.06,0,0,0,.06.06l.08,0,.09,0c.12-.06.26-.15.26-.23a.06.06,0,0,0-.06-.06Z"/><path class="c" d="M203.22,44.82c-.06,0-.11,0-.11.08V45c0,.09.14.12.26.12s.11,0,.14,0V45C203.51,44.87,203.34,44.82,203.22,44.82Z"/><path class="c" d="M206.3,45.6a.22.22,0,0,0,.2.09,1.77,1.77,0,0,0,.64-.18,2,2,0,0,0,.49-.4C206.93,45.57,206.3,45.48,206.3,45.6Z"/><path class="c" d="M205.66,45.43h0a.13.13,0,0,0-.15.14v.06s.09,0,.12.06l.12,0a.16.16,0,0,0,.17-.15v0C205.86,45.43,205.77,45.45,205.66,45.43Z"/><path class="c" d="M202.32,44.12a.09.09,0,0,0-.08,0,.11.11,0,0,0,0,.09c0,.11.14.29.26.29v-.21C202.47,44.21,202.41,44.12,202.32,44.12Z"/><path class="c" d="M197.42,41.92l-.11,0,0,.09a4.69,4.69,0,0,0-.09.64,1.79,1.79,0,0,0,.15.64l0,.08c0,.12-.09.21-.09.29s0,.12.14.15l.06-1a1.32,1.32,0,0,0-.06-.47.45.45,0,0,0,.09-.26A.22.22,0,0,0,197.42,41.92Z"/><path class="c" d="M209.6,39.28a.88.88,0,0,0,.06-.32v0c-.17.09,0,.17-.26.26s-.52.14-.52.23v0c0,.06.09.09.2.09A.61.61,0,0,0,209.6,39.28Z"/><path class="c" d="M213.08,43.86V43.4a1.42,1.42,0,0,0-.23-.9V45c0,.09.09.15.2.15h.06a2.32,2.32,0,0,1,0-.44,1.8,1.8,0,0,1,0-.41A2.08,2.08,0,0,1,213.08,43.86Z"/><path class="c" d="M208,32.66h0a2.69,2.69,0,0,0-2.09-1.1l-.26,0c.55.14,1,.38,1.54.49S207.6,32.66,208,32.66Z"/><path class="c" d="M204.7,37.48l1.92-.12a3.46,3.46,0,0,1,.78.09,21.2,21.2,0,0,0-.47-2.7,2,2,0,0,0-1.59-1.1,1.16,1.16,0,0,0-.32,0,2.11,2.11,0,0,0-1.51,1.45c0,.43-.23.95-.23,1.42a1,1,0,0,0,.32.75A3.38,3.38,0,0,0,204.7,37.48Z"/><path class="c" d="M165.36,44.12a.11.11,0,0,0-.09,0,.15.15,0,0,0,0,.09c0,.11.14.29.26.29v-.21C165.51,44.21,165.45,44.12,165.36,44.12Z"/><path class="c" d="M218.5,39.07c.09,0,.12-.08.12-.14s-.35-.52-.35-.84v-.21s-.08.18-.08.35a.75.75,0,0,0,.05.26s-.2.32-.2.5.12.14.2.14A.76.76,0,0,0,218.5,39.07Z"/><path class="c" d="M218.5,40.15s0,0,0,.08v.09a.24.24,0,0,0-.15.23l.06.29a.32.32,0,0,1-.09.21c.09,0,.09.05.09.11l-.06.26c0,.06,0,.09.09.15a.56.56,0,0,0-.12.38,1.88,1.88,0,0,0,.06.37,2.39,2.39,0,0,0-.09.38.23.23,0,0,0,.15.23.32.32,0,0,0-.09.2.89.89,0,0,0,.12.35.19.19,0,0,0-.18.18l-.08.17.23,0,0-.14a.38.38,0,0,0,.14-.29c0-.18-.09-.32-.09-.47l0-.08h-.05s-.09,0-.09,0v0s.06-.06.09-.09l-.06-.9c.17-.06.2-.14.2-.23l-.06-.35a.51.51,0,0,1,.06-.2v-.06l.12-.55C218.74,40.2,218.53,40.15,218.5,40.15Z"/><path class="c" d="M223,45.34c-.06,0-.06.06-.06.11a.11.11,0,0,0,.12.12s.06,0,.09-.09A.2.2,0,0,0,223,45.34Z"/><path class="c" d="M228,42c0,.15.06.15.14.21l0-.12,0-.26C228.08,41.8,228,41.86,228,42Z"/><path class="c" d="M92,14.17,83.74,0H42.4L34.13,14.17H0V57.11H34.37l8,13.76H83.74l8-13.76H263.62V14.17ZM82,67.85H44.13L25.22,35.44,44.13,3H82l18.91,32.42Zm50.51-27.56c-.09,0-.32.12-.32.23s0,.06.06.12a.26.26,0,0,0-.12.23l.06.35c0,.12-.06.2-.29.23.11.12.26.15.26.32-.38.61-.55,1.25-1,1.94-.29.09-.78.24-.92.7a.23.23,0,0,0-.12,0c-.2,0-.23.35-.41.35a.15.15,0,0,1-.11,0c-.18.44-.79,0-.84.52a5.72,5.72,0,0,0-.76-.06,1.14,1.14,0,0,0-.69.18,3.7,3.7,0,0,0-1.05-.09c-1.71,0-2.58.2-4.41.2h-.2c-.2,0-.35,0-.35-.14s.29-.29.29-.38-.46-.17-.46-.37a.23.23,0,0,1,0-.12c-.06-.06-.09-.09-.09-.12l0-.26a.72.72,0,0,1-.09-.4l.06-.12,0-.35c-.09-.06-.09-.14-.09-.26l0-.49a.68.68,0,0,0-.09-.35,1.18,1.18,0,0,0,.09-.46l-.06-1a.71.71,0,0,0,.06-.23c0-.18-.09-.38-.09-.58a.4.4,0,0,1,.06-.26c0-.47,0-.85,0-1.14a8.15,8.15,0,0,1,.06-1.1V37.3a.25.25,0,0,1-.09-.2,1.28,1.28,0,0,1,.15-.44.41.41,0,0,1-.18-.37.38.38,0,0,1,0-.18s-.05,0-.11,0a.4.4,0,0,0,.14-.26c0-.14-.14-.32-.14-.43a.65.65,0,0,1,.11-.29.28.28,0,0,1-.11-.23l.11-.47a.36.36,0,0,0-.14-.29L121,34v-.11c0-.47.15-2,.15-3a3.27,3.27,0,0,0,0-.58.63.63,0,0,0,.06-.2c0-.12-.09-.12-.09-.26s.15-.26.15-.44-.09-.43-.09-.66l0-.15a1.07,1.07,0,0,1-.09-.55V27.7a1.82,1.82,0,0,0-.06-.58.31.31,0,0,0,.09-.26c0-.17-.06-.35-.06-.46s0-.15.09-.21a.2.2,0,0,1,0-.11c0-.24,1-.55,1.51-.9l.23,0c.87,0,1.91.26,3.16.26a2.77,2.77,0,0,0,.87-.12,1.17,1.17,0,0,0,.7.18,5,5,0,0,0,.72-.06c.09.49.67.12.87.52a.11.11,0,0,1,.09,0c.17,0,.2.38.41.38l.14-.06a1.33,1.33,0,0,0,.84.7l.09,0a13.41,13.41,0,0,1,1,1.91c0,.18-.15.23-.24.32.21,0,.26.12.26.23l-.05.35a.31.31,0,0,0,.14.26c-.06.06-.09.09-.09.12s.27.2.32.23l.06.06c-.17,0-.23.06-.23.11l.09.21c0,.05,0,.08-.18.14l.15.41c-.44.2-.21.93-.44,1.24a.51.51,0,0,1,0,.21c0,.26-.2.23-.2.43v.15a.24.24,0,0,1-.09.17l-.23.12s0,.06,0,.11a1.18,1.18,0,0,1-.29.61l0,0c.09,0,.09.12.09.23-.18,0-.55,0-.55.21l0,.08c.18.12.38.21.44.41v.06c0,.17.35.2.55.2,0,.12,0,.26-.12.26a1.14,1.14,0,0,1,.32.61.27.27,0,0,1,0,.15l.27.08a.18.18,0,0,1,.08.15c0,.09,0,.17,0,.23s.24.18.24.41a.71.71,0,0,1-.06.2c.26.32,0,1,.43,1.25l-.14.38a.24.24,0,0,1,.17.26c0,.14-.06.32-.06.43s0,.21.21.23Zm4.23,5.16a.48.48,0,0,0-.35-.14c-.23,0-.46.12-.67.12a.39.39,0,0,1-.37-.24.62.62,0,0,0,.23-.49c0-.29-.15-.55-.15-.87a.83.83,0,0,1,.15-.43c0-.7,0-1.34,0-2v-2c0-.81,0-1.62-.06-2.46,0-.35,0-.67,0-1V35a8.93,8.93,0,0,0-.34-2.87c.14-1.25,1.56-.67,2.37-1a.39.39,0,0,1,.15,0c.26,0,.4.26.43.46a59.94,59.94,0,0,0-.32,6v.67a54,54,0,0,0,.35,7.2Zm1.39-18.85c0,.32-.35.64-.35,1l0,.15c-.06.32,0,.84-.35.84h0a.73.73,0,0,0-.44-.09l-.75.06a.54.54,0,0,1-.55-.29l-.32.2a1.21,1.21,0,0,1-.24-.78,4.8,4.8,0,0,1,.09-.69v-.09c0-.18-.14-.26-.29-.35,0-.26.35-.46.35-.7a.31.31,0,0,0-.15-.26V25.5h0l.47.23a.18.18,0,0,0,.14-.06.53.53,0,0,1-.08-.29c0-.09,0-.2.11-.23a13.67,13.67,0,0,1,1.83.17v.06c0,.32.55.41.55.67a.4.4,0,0,1-.15.29A.43.43,0,0,1,138.13,26.6Zm.09-1a.1.1,0,0,1-.06,0l-.09,0,0,0a.2.2,0,0,1,.15-.14h0s.06.06.06.09S138.25,25.55,138.22,25.58Zm11.31,16.71a3.77,3.77,0,0,1-1.89,3.14,4.8,4.8,0,0,1-2.2.49,5.74,5.74,0,0,1-2.84-.73c-2-1.1-2.06-3-2.12-4.87l0-.43c0-.58-.06-1.16-.06-1.72a9.7,9.7,0,0,1,1.16-5c.5-.84,1.34-1,2.12-1.47a3.51,3.51,0,0,1,1.62-.41,4.32,4.32,0,0,1,3.14,1.45c1.13,1.28.95,3.13,1.13,4.79a3.09,3.09,0,0,1,.06.55l-.06,1.39-.32.23c-1.8-.08-3.54,0-5.4-.2-1.16,0-.69.26-.92.58.08,1.57.46,2.93,2.08,3.45l.21,0c.46,0,.81-.38,1.27-.49.79-.55,0-1.8,1-2.12a3.25,3.25,0,0,0,.49.06c.41,0,.76-.09,1.11-.09a2,2,0,0,1,.58.09c0,.26.17.58.17.87A.45.45,0,0,1,149.53,42.29Zm11.66-6.55v3a.88.88,0,0,0-.06.27v6a2.09,2.09,0,0,1-1,.49,1.33,1.33,0,0,0-.75-.14h-.26c-.44,0-.84,0-1-.55a8,8,0,0,0,.15-1.66,10.18,10.18,0,0,0-.12-1.65,1.35,1.35,0,0,0,.17-.73l-.11-1.19a.75.75,0,0,1,.09-.43v-3.4a2.77,2.77,0,0,0-.73-2.17v0l.06-.32a.14.14,0,0,0-.06-.14l-.14-.06c-.15,0-.15.29-.32.29h0a.72.72,0,0,0-.35-.06,2.17,2.17,0,0,0-1.28.7,2.82,2.82,0,0,0-.72,2.08v1.69a8.48,8.48,0,0,1-.06.87.85.85,0,0,1,.14.52l-.08.87a1.2,1.2,0,0,0,.06.32v4.09a.46.46,0,0,1,.11.32l-.14.69a1,1,0,0,1-.7.27,2.28,2.28,0,0,1-.78-.18.33.33,0,0,1-.23.09,1.1,1.1,0,0,1-.44-.15,1,1,0,0,1-.49-.92l.14-1.37a2.12,2.12,0,0,0-.06-.43v-.58c0-1.22-.05-2.29-.11-3.6.09-.06.11-.29.11-.61,0-.64-.11-1.6-.11-2.44a2.73,2.73,0,0,1,.23-1.3.49.49,0,0,1-.12-.32c0-.2.12-.44.12-.7v-.08a1.14,1.14,0,0,1-.14-.64,6.19,6.19,0,0,1,.05-.76,1.56,1.56,0,0,1,1-.26c.41,0,.84.09,1.22.12.17.06,0,.43.26.49.9-.17,1.65-.78,2.67-.78a2.82,2.82,0,0,1,.67.09,1.1,1.1,0,0,0,.26,0l.66,0a1.77,1.77,0,0,1,.58.08c.35.67,1.34.81,1.34,1.57v.09a.92.92,0,0,1,.38.84l0,.55a1.12,1.12,0,0,0,.14.61c-.09.14-.23.26-.23.43A.43.43,0,0,0,161.19,35.74Zm11.57,6.55a3.77,3.77,0,0,1-1.89,3.14,4.8,4.8,0,0,1-2.2.49,5.74,5.74,0,0,1-2.84-.73c-2-1.1-2.06-3-2.12-4.87l0-.43c0-.58-.06-1.16-.06-1.72a9.7,9.7,0,0,1,1.16-5c.49-.84,1.34-1,2.12-1.47a3.51,3.51,0,0,1,1.62-.41,4.33,4.33,0,0,1,3.14,1.45c1.13,1.28,1,3.13,1.13,4.79a3.09,3.09,0,0,1,.06.55l-.06,1.39-.32.23c-1.8-.08-3.54,0-5.4-.2-1.16,0-.69.26-.93.58.09,1.57.47,2.93,2.09,3.45l.21,0c.46,0,.81-.38,1.27-.49.79-.55,0-1.8,1-2.12a3.11,3.11,0,0,0,.49.06c.41,0,.76-.09,1.11-.09a2,2,0,0,1,.58.09c0,.26.17.58.17.87A.45.45,0,0,1,172.76,42.29Zm11.63-6.55v3a.88.88,0,0,0-.06.27v6a2.09,2.09,0,0,1-1,.49,1.33,1.33,0,0,0-.75-.14h-.26c-.44,0-.84,0-1-.55a8,8,0,0,0,.15-1.66,10.18,10.18,0,0,0-.12-1.65,1.35,1.35,0,0,0,.17-.73l-.11-1.19a.75.75,0,0,1,.09-.43v-3.4a2.77,2.77,0,0,0-.73-2.17v0l.06-.32a.14.14,0,0,0-.06-.14l-.14-.06c-.15,0-.15.29-.32.29h0a.72.72,0,0,0-.35-.06,2.17,2.17,0,0,0-1.28.7,2.82,2.82,0,0,0-.72,2.08v1.69a8.48,8.48,0,0,1-.06.87.85.85,0,0,1,.14.52L178,40a1.2,1.2,0,0,0,.06.32v4.09a.46.46,0,0,1,.11.32l-.14.69a1,1,0,0,1-.7.27,2.28,2.28,0,0,1-.78-.18.33.33,0,0,1-.23.09,1.1,1.1,0,0,1-.44-.15,1,1,0,0,1-.49-.92l.14-1.37a2.12,2.12,0,0,0-.06-.43v-.58c0-1.22,0-2.29-.11-3.6.09-.06.11-.29.11-.61,0-.64-.11-1.6-.11-2.44a2.73,2.73,0,0,1,.23-1.3.49.49,0,0,1-.12-.32c0-.2.12-.44.12-.7v-.08a1.14,1.14,0,0,1-.14-.64,6.19,6.19,0,0,1,0-.76,1.56,1.56,0,0,1,1-.26c.41,0,.84.09,1.22.12.17.06,0,.43.26.49.9-.17,1.65-.78,2.67-.78a2.82,2.82,0,0,1,.67.09,1.1,1.1,0,0,0,.26,0l.66,0a1.77,1.77,0,0,1,.58.08c.35.67,1.34.81,1.34,1.57v.09a.92.92,0,0,1,.38.84l0,.55a1.12,1.12,0,0,0,.14.61c-.09.14-.23.26-.23.43A.43.43,0,0,0,184.39,35.74ZM198,44.85c-.06.87-.64.87-1.28.87h-.17a2.72,2.72,0,0,0-.64.05c-.06,0-.09,0-.12,0-.29,0-.32-.37-.35-.66v-.09c0-.26,0-.64,0-1.19V42c0-2.75-.11-6.41-.17-7.4v-4c0-.29,0-.61,0-.93,0-.55,0-1.27-.12-2.06-.95.24-3.56-.11-3.85.73,0,1-.06,1.83-.15,2.84a.77.77,0,0,0,.61.29l1-.09a.74.74,0,0,1,.81.56l0,.63a1,1,0,0,1-.38.93h-.61c-.55,0-1.13.09-1.3.73,0,2.55,0,5.16-.15,7.63a7,7,0,0,1,.12,1.36,15.48,15.48,0,0,1-.18,2.09c-.78.09-1.5.23-2.32.32a1.84,1.84,0,0,1-.23-1l.18-1.91a1.63,1.63,0,0,0,0-.38,3.76,3.76,0,0,1,0-.58l.06-1.48a3.37,3.37,0,0,0-.15-1.07c0-1,.09-2,.09-2.93a13.78,13.78,0,0,0-.2-2.44.78.78,0,0,0-.56-.17l-.43,0a.74.74,0,0,1-.7-.34c-.2-.09-.55,0-.55-.24v0c.2,0,.26-.21.29-.35,0-.32-.41-.61-.41-.82,0-.05,0-.08.09-.14a.48.48,0,0,1,.26-.09.68.68,0,0,1,.38.15c.2.11.12.4.35.55h0c.08,0,.2-.12.2-.32a.32.32,0,0,0,0-.17c0-.09-.06-.12-.12-.12h-.11a.08.08,0,0,1-.09-.09.08.08,0,0,1,0-.08c.46-.41,1.19.11,1.37-.7a2.69,2.69,0,0,1,0-.55l.15-2.47,0-.46c.55-.81.64-2.26,2-2.26h.32c.7,0,1.28-.21,1.92-.21a1.31,1.31,0,0,1,.34,0c.79.09,2,.09,3.28.09,0,.06.09.06.15.06s.35-.15.43-.15a1.54,1.54,0,0,1,.82,1.48c0,.61-.18,1.25-.18,1.8v.12c.32,1.39,0,4.43.44,6.81,0,.15,0,.32,0,.58,0,1.34-.18,4.12-.18,6.3A14.27,14.27,0,0,0,198,44.85Zm11.77-2.56a3.77,3.77,0,0,1-1.89,3.14,4.8,4.8,0,0,1-2.2.49,5.74,5.74,0,0,1-2.84-.73c-2-1.1-2.06-3-2.12-4.87l0-.43c0-.58-.06-1.16-.06-1.72a9.7,9.7,0,0,1,1.16-5c.5-.84,1.34-1,2.12-1.47a3.51,3.51,0,0,1,1.62-.41,4.32,4.32,0,0,1,3.14,1.45c1.13,1.28.95,3.13,1.13,4.79a3.09,3.09,0,0,1,.06.55l-.06,1.39-.32.23c-1.8-.08-3.54,0-5.4-.2-1.16,0-.69.26-.92.58.08,1.57.46,2.93,2.08,3.45l.21,0c.46,0,.81-.38,1.27-.49.79-.55,0-1.8,1-2.12a3.25,3.25,0,0,0,.49.06c.41,0,.76-.09,1.11-.09a2,2,0,0,1,.58.09c0,.26.17.58.17.87A.45.45,0,0,1,209.72,42.29Zm4.09,3.16a.48.48,0,0,0-.35-.14c-.23,0-.46.12-.67.12a.39.39,0,0,1-.37-.24.62.62,0,0,0,.23-.49c0-.29-.15-.55-.15-.87a.83.83,0,0,1,.15-.43c0-.7,0-1.34,0-2v-2c0-.81,0-1.62-.06-2.46,0-.35,0-.67,0-1V35a8.67,8.67,0,0,0-.35-2.87c.15-1.25,1.57-.67,2.38-1a.39.39,0,0,1,.15,0c.26,0,.4.26.43.46a59.94,59.94,0,0,0-.32,6v.67a54,54,0,0,0,.35,7.2ZM215.2,26.6c0,.32-.35.64-.35,1l0,.15c-.06.32,0,.84-.35.84h0a.7.7,0,0,0-.43-.09l-.75.06a.56.56,0,0,1-.56-.29l-.31.2a1.21,1.21,0,0,1-.24-.78,4.8,4.8,0,0,1,.09-.69v-.09c0-.18-.15-.26-.29-.35,0-.26.35-.46.35-.7a.31.31,0,0,0-.15-.26V25.5h0l.47.23a.19.19,0,0,0,.14-.06.55.55,0,0,1-.09-.29c0-.09,0-.2.12-.23a13.67,13.67,0,0,1,1.83.17v.06c0,.32.55.41.55.67a.4.4,0,0,1-.15.29A.43.43,0,0,1,215.2,26.6Zm.09-1a.1.1,0,0,1-.06,0l-.09,0,0,0a.2.2,0,0,1,.15-.14h0s.05.06.05.09S215.32,25.55,215.29,25.58Zm13.11,16.6c-.18.37-.55.78-.73,1.22-.43,1.21-1.13,1.59-2.9,2l-1.07.23a3.06,3.06,0,0,1-.82.14c-.31,0-1.47-.52-1.47-1.39a1.24,1.24,0,0,1,1.21-1.19c.26,0,.53.18.73.18.49,0,.9-.47,1.42-.47h.09c.87,0,1.19-1.88,1.19-3.54,0-2-.47-3.8-2.73-3.8a4,4,0,0,0-.52.06c-.35-.35-.26-.84-.44-1.25a.78.78,0,0,0,.12-.52v-.35c0-.29.09-.52.46-.52l.32,0c.84,0,1.28,0,1.71-1a1.54,1.54,0,0,0,.47-1v-.12c0-.26-.09-.61-.09-1v-.24a.71.71,0,0,1-.2-.46.32.32,0,0,1,0-.17c-.55-.53-1-1.11-1.8-1.19l-.29,0c-1.48,0-2.44,1.1-2.44,3.3v.27a1.15,1.15,0,0,0-.06.29c0,.05,0,.14,0,.23a1.26,1.26,0,0,1-.08.49,6.69,6.69,0,0,1,.08,1l-.11,3.33c0,.35,0,.67,0,1l0,.41a2.51,2.51,0,0,1-.11.81.45.45,0,0,1,.09.26c0,.2-.12.38-.12.55s.12.26.12.35a.39.39,0,0,1-.06.17l0,.12a.89.89,0,0,0-.09.26.25.25,0,0,0,.06.14l0,.29a.76.76,0,0,0,.15.5.18.18,0,0,1-.12.2.38.38,0,0,1,0,.18l-.06.43a.74.74,0,0,0,.09.32.39.39,0,0,0-.15.14c.12.06.15.12.15.21a.71.71,0,0,1-.06.23c0,.2,0,.06,0,2.26,0,.26-.87.76-1,.76l-.81,0c-.44-.12-.38-.53-.84-.82.11-.11.14-.17.14-.23l0-.11a6.44,6.44,0,0,1,0-.76,1.55,1.55,0,0,1,0-.35l.08-.37c0-.09-.06-.15-.2-.23.06-.12.23-.24.23-.35a.27.27,0,0,0-.09-.15c0-.08.06-.11.06-.17a2.16,2.16,0,0,0-.08-.29v-.09c0-.14.11-.2.11-.32s-.11-.26-.11-.35a.11.11,0,0,1,0-.11,2.2,2.2,0,0,1,0-.44.66.66,0,0,1,.08-.32A13.05,13.05,0,0,1,217.9,39c0-2.06.08-3.57.08-4.39a2.13,2.13,0,0,0-.06-.72,1.29,1.29,0,0,0,.09-.46,8.21,8.21,0,0,0-.09-.82.72.72,0,0,0,.09-.34l0-.44c.18-1.8.26-4.35.87-4.35h.06a2.55,2.55,0,0,0,.44-.75l1.16-.93a12.06,12.06,0,0,1,3-.64,5,5,0,0,1,3.43,1.8l.29.29A8.09,8.09,0,0,1,228,31a3.43,3.43,0,0,1-1.68,2.78l-.15.35a4.58,4.58,0,0,1,2.38,3.22,8.72,8.72,0,0,1,0,.9C228.54,39.42,228.43,40.73,228.4,42.18Z"/><path class="c" d="M213.81,25.73a.51.51,0,0,1-.35.09h-.29a.46.46,0,0,0-.41.17c0,.14,0,.43.18.49v0c0-.69.87-.34,1.19-.55a.47.47,0,0,1,.37.52.06.06,0,0,0,.06.06.23.23,0,0,0,.12-.06.18.18,0,0,0,.06-.14.36.36,0,0,0,0-.15C214.56,25.73,214.07,26,213.81,25.73Z"/><path class="c" d="M214.77,45.14s0,.11.08.11l.06,0a0,0,0,0,0,0,0h0s.06-.06.06-.11a.18.18,0,0,0-.09-.18C214.82,45,214.77,45.05,214.77,45.14Z"/><path class="c" d="M218.39,35.36a.22.22,0,0,0-.18-.18.14.14,0,0,0-.11.15.2.2,0,0,0,.17.09A.16.16,0,0,0,218.39,35.36Z"/><path class="c" d="M218.5,39.71c0,.09,0,.15.09.15l.06-.09,0-.12C218.5,39.65,218.5,39.68,218.5,39.71Z"/><path class="c" d="M218.3,37.56a.1.1,0,0,1,.06,0c.06,0,.09-.06.09-.14,0-.23-.15-.7-.18-1s0-.61-.06-.61a.84.84,0,0,0-.05.35,5.86,5.86,0,0,0,.11.73l0,.49C218.24,37.48,218.24,37.53,218.3,37.56Z"/><path class="c" d="M197.31,38.64a.44.44,0,0,0,0-.2l-.12,0a6.53,6.53,0,0,0,0,.79c0,.81.09,1.77.09,2.14,0,.09.23-.32.23-.43v0a.8.8,0,0,1,0-.23l0-.26a.65.65,0,0,0-.14-.41.27.27,0,0,0,.09-.2l0-.35a.39.39,0,0,1,.17-.35.39.39,0,0,1-.2-.38Z"/><path class="c" d="M177.66,45.05c-.15,0-.23.26-.41.32a1.43,1.43,0,0,0,.29.08h0c.12,0,.29-.08.29-.2a.11.11,0,0,0,0-.09A.22.22,0,0,0,177.66,45.05Z"/><path class="c" d="M175.69,34.75a3.89,3.89,0,0,0-.21,1c.23-.06.29-.35.29-.61S175.71,34.69,175.69,34.75Z"/><path class="c" d="M177.45,31.85a.06.06,0,0,0,0-.06l-.12,0c-.14,0-.32-.09-.41-.09a.11.11,0,0,0-.11.12v.06a1,1,0,0,0,.38.08.85.85,0,0,0,.26,0S177.45,31.88,177.45,31.85Z"/><path class="c" d="M181.54,31.47c0,.06-.11.12-.11.18a.26.26,0,0,0,.09.14.32.32,0,0,1,.17,0c.2,0,.35.15.64.15v-.12a1.17,1.17,0,0,0-.7-.32Z"/><path class="c" d="M183.49,33.24h0c-.06,0-.06.09-.06.15s.09.37.23.37.09,0,.09-.14S183.63,33.24,183.49,33.24Z"/><path class="c" d="M169.34,45.6c0,.06.11.09.2.09a1.77,1.77,0,0,0,.64-.18,2,2,0,0,0,.49-.4C170,45.57,169.34,45.48,169.34,45.6Z"/><path class="c" d="M165.56,32.75c-.2,0-.37.14-.37.23a.06.06,0,0,0,.06.06l.08,0,.09,0c.12-.06.26-.15.26-.23a.06.06,0,0,0-.06-.06Z"/><path class="c" d="M166.26,44.82c-.06,0-.12,0-.12.08V45c0,.09.15.12.27.12a.21.21,0,0,0,.14,0V45C166.55,44.87,166.38,44.82,166.26,44.82Z"/><path class="c" d="M168.7,45.43h0a.13.13,0,0,0-.15.14v.06s.09,0,.12.06l.12,0a.16.16,0,0,0,.17-.15v0C168.9,45.43,168.81,45.45,168.7,45.43Z"/><path class="c" d="M181,31.41c-.2,0-.46.27-.43.32a.06.06,0,0,0,.06.06c.08,0,.2-.09.31-.09s.27-.05.27-.14v0A.23.23,0,0,0,181,31.41Z"/><path class="c" d="M197.25,27.29v-.08l-.09-1.31a.34.34,0,0,0-.17-.08c-.09,0-.09.11-.09.26s0,.37,0,.61a1.17,1.17,0,0,1-.14.63v0a.26.26,0,0,0,.26.29C197.22,27.64,197.25,27.41,197.25,27.29Z"/><path class="c" d="M197.34,44.56c0,.17,0,.26.06.26s.08-.09.08-.26,0-.27-.08-.27S197.34,44.38,197.34,44.56Z"/><path class="c" d="M193.13,32.17a.11.11,0,0,0,0-.09.17.17,0,0,0-.12-.17h0s0,0,0,.05c0,.21,0,.27.08.27A.06.06,0,0,0,193.13,32.17Z"/><path class="c" d="M190.75,43.57c-.05,0-.08.09-.08.17s0,.15.08.15h0a1.05,1.05,0,0,0,0-.2c0-.06,0-.09,0-.12Z"/><polygon class="c" points="46.67 41.67 51.4 64.08 61.54 61.58 49.44 41.27 46.67 41.67"/><path class="c" d="M62.72,25.31A27.93,27.93,0,0,0,59,25.05a20.29,20.29,0,0,0-3.94.37,26.37,26.37,0,0,1-2,6.64A26.48,26.48,0,0,1,49.2,37.8a23.19,23.19,0,0,0,4.71,6,35.22,35.22,0,0,0,6-8.51,35,35,0,0,0,2.85-10"/><path class="c" d="M83.46,38.24a23.59,23.59,0,0,0-5.72-7.12A30.92,30.92,0,0,1,75.19,42.6a31.39,31.39,0,0,1-7.42,9.33,27.87,27.87,0,0,0,8.33.92,32.4,32.4,0,0,0,5-7.41,30.76,30.76,0,0,0,2.33-7.2"/><path class="c" d="M74,28.75a42.85,42.85,0,0,0-6.42-2.41A30.91,30.91,0,0,1,65,37.76a31.21,31.21,0,0,1-7.26,9.18,42.1,42.1,0,0,0,5.91,3.46A35.94,35.94,0,0,0,71,40.6a35.71,35.71,0,0,0,3-11.85"/><path class="c" d="M85.47,42.66a23.61,23.61,0,0,1-1.58,4.56,25,25,0,0,1-3.43,5.19,32.79,32.79,0,0,0,7.05-1.94,38.73,38.73,0,0,0-2-7.81"/><polygon class="c" points="74.41 6.79 56.4 20.91 58.26 23 80.58 15.22 74.42 6.79 74.41 6.79"/><path class="c" d="M49.14,21.37a5.77,5.77,0,0,0-4.2-.39L42.77,18.1l.78-1.62-1.7-.81-1.27,2.66,2.57,3.4a8.66,8.66,0,0,0-4.15,8l-4.2.7-.92,2.8,1.79.58.56-1.71,3.16-.53a5.79,5.79,0,0,0,2.75,3.24c3.14,1.63,7.25-.06,9.19-3.78s1-8-2.19-9.69"/></g></svg>